<mxfile host="app.diagrams.net" modified="2022-01-12T09:45:52.644Z" agent="5.0 (Windows NT 10.0; Win64; x64) AppleWebKit/537.36 (KHTML, like Gecko) Chrome/97.0.4692.71 Safari/537.36 Edg/97.0.1072.55" etag="AL4zlivVNfEsQpcSMWsv" version="16.2.2" type="github" pages="2">
  <diagram id="4c1VpRGPmlPNdRo71NXQ" name="AddSegment">
    <mxGraphModel dx="1038" dy="574" grid="1" gridSize="10" guides="1" tooltips="1" connect="1" arrows="1" fold="1" page="1" pageScale="1" pageWidth="827" pageHeight="1169" math="0" shadow="0">
      <root>
        <mxCell id="0" />
        <mxCell id="1" parent="0" />
        <mxCell id="FJZq7clpWB3ZyRNIStMU-1" value="AddEmptySegment" style="text;html=1;align=center;verticalAlign=middle;resizable=0;points=[];autosize=1;strokeColor=#d79b00;fillColor=#ffe6cc;" vertex="1" parent="1">
          <mxGeometry x="160" y="10" width="120" height="20" as="geometry" />
        </mxCell>
        <mxCell id="FJZq7clpWB3ZyRNIStMU-2" value="AddSegment" style="text;html=1;align=center;verticalAlign=middle;resizable=0;points=[];autosize=1;strokeColor=#d79b00;fillColor=#ffe6cc;" vertex="1" parent="1">
          <mxGeometry x="180" y="170" width="80" height="20" as="geometry" />
        </mxCell>
        <mxCell id="FJZq7clpWB3ZyRNIStMU-3" value="1.新建segment会根据已有segment的信息去创建segment，且他们是共享同一个vtkImageData&lt;br&gt;2.如果没有在segmentataion下没有segment，直接创建一个segment，没有看到设置extend" style="rounded=0;whiteSpace=wrap;html=1;align=left;fillColor=#f8cecc;strokeColor=#b85450;" vertex="1" parent="1">
          <mxGeometry x="60" y="70" width="360" height="60" as="geometry" />
        </mxCell>
      </root>
    </mxGraphModel>
  </diagram>
  <diagram id="318P4KOPJe7o744M8Flt" name="segmentation存档回退">
    <mxGraphModel dx="1038" dy="574" grid="1" gridSize="10" guides="1" tooltips="1" connect="1" arrows="1" fold="1" page="1" pageScale="1" pageWidth="827" pageHeight="1169" math="0" shadow="0">
      <root>
        <mxCell id="Q41Po8fQuBaOBkuqAiFp-0" />
        <mxCell id="Q41Po8fQuBaOBkuqAiFp-1" parent="Q41Po8fQuBaOBkuqAiFp-0" />
        <mxCell id="Q41Po8fQuBaOBkuqAiFp-2" value="vtkSegmentationHistory" style="text;html=1;align=center;verticalAlign=middle;resizable=0;points=[];autosize=1;strokeColor=none;fillColor=none;" vertex="1" parent="Q41Po8fQuBaOBkuqAiFp-1">
          <mxGeometry x="30" y="60" width="140" height="20" as="geometry" />
        </mxCell>
      </root>
    </mxGraphModel>
  </diagram>
</mxfile>
